<svg width="9" height="10" viewBox="0 0 9 10" fill="none" xmlns="http://www.w3.org/2000/svg">
<path d="M1.8683 2.814C1.17736 2.28385 0.589426 2.23863 0.486413 2.28385C0.4437 2.12305 1.28037 1.72607 1.38338 1.62306C1.72257 1.29895 1.91353 0.869304 2.3105 0.592926C3.11954 0.0175582 4.11952 0.195947 4.9587 0.650714C5.38583 0.886891 6.5617 1.65572 6.57928 1.69592C7.24809 2.19578 7.87189 2.75318 8.44358 3.36173C8.48334 3.39691 8.50713 3.44672 8.5095 3.49977C8.51187 3.55281 8.49261 3.60454 8.45614 3.64313C8.37825 3.70343 8.20489 3.84413 7.90338 4.11046C5.92603 5.91696 5.34563 8.50486 5.19991 9.43701C5.19991 9.45711 5.17227 9.61791 5.17227 9.61791C5.17227 9.61791 4.20997 4.46221 1.8683 2.814Z" fill="#FFAD00"/>
</svg>
